<?xml version="1.0" encoding="UTF-8"?>
<svg version="1.1" xmlns="http://www.w3.org/2000/svg" width="128" height="128">
<path d="M0 0 C1.65 0 3.3 0 5 0 C5 0.66 5 1.32 5 2 C5.68626465 1.99476318 6.3725293 1.98952637 7.07958984 1.98413086 C10.17805064 1.96339044 13.27649686 1.95034924 16.375 1.9375 C17.99535156 1.92493164 17.99535156 1.92493164 19.6484375 1.91210938 C21.1953125 1.90727539 21.1953125 1.90727539 22.7734375 1.90234375 C23.72653809 1.89710693 24.67963867 1.89187012 25.66162109 1.88647461 C28 2 28 2 30 3 C30.3125 5.25 30.3125 5.25 30 8 C27.5 10.3125 27.5 10.3125 25 12 C25.845625 12.721875 26.69125 13.44375 27.5625 14.1875 C28.366875 15.115625 29.17125 16.04375 30 17 C29.505 19.475 29.505 19.475 29 22 C21.08 22 13.16 22 5 22 C5.99 23.98 5.99 23.98 7 26 C7.38163039 29.42820517 7.56820874 32.86358252 6 36 C5.84373424 38.47832659 5.74186802 40.93311331 5.68359375 43.4140625 C5.6524221 44.50852188 5.6524221 44.50852188 5.62062073 45.62509155 C5.55518083 47.95829763 5.49626632 50.29161721 5.4375 52.625 C5.39430947 54.20574095 5.35069501 55.78647039 5.30664062 57.3671875 C5.19950519 61.24467504 5.09822218 65.12227685 5 69 C5.97582031 68.96519531 6.95164062 68.93039063 7.95703125 68.89453125 C9.22933594 68.86746094 10.50164062 68.84039062 11.8125 68.8125 C13.07707031 68.77769531 14.34164062 68.74289063 15.64453125 68.70703125 C19 69 19 69 20.88671875 70.32421875 C22.97041972 73.46073705 23.12290482 76.19002596 23.11352539 79.83862305 C23.11341209 81.30980843 23.11341209 81.30980843 23.11329651 82.81071472 C23.10813522 83.86704605 23.10297394 84.92337738 23.09765625 86.01171875 C23.0962413 87.09508011 23.09482635 88.17844147 23.09336853 89.29463196 C23.08776559 92.75894925 23.07521258 96.2232022 23.0625 99.6875 C23.05748538 102.03450428 23.05292241 104.38150956 23.04882812 106.72851562 C23.03779521 112.48569908 23.0210542 118.24284494 23 124 C24.98 124 26.96 124 29 124 C29 125.32 29 126.64 29 128 C-8.95 128 -46.9 128 -86 128 C-86 126.68 -86 125.36 -86 124 C-84.02 124 -82.04 124 -80 124 C-80.04125 122.7625 -80.0825 121.525 -80.125 120.25 C-80.125 116.99716438 -79.95704844 114.71812283 -78 112 C-75.54724859 110.7736243 -73.9494219 110.88584686 -71.2109375 110.90234375 C-70.26992187 110.90556641 -69.32890625 110.90878906 -68.359375 110.91210938 C-67.37453125 110.92048828 -66.3896875 110.92886719 -65.375 110.9375 C-64.38242188 110.94201172 -63.38984375 110.94652344 -62.3671875 110.95117188 C-59.9113984 110.96297855 -57.45572896 110.979446 -55 111 C-55.02835938 109.71996094 -55.05671875 108.43992187 -55.0859375 107.12109375 C-55.171875 103.2421875 -55.171875 103.2421875 -53.625 101.0625 C-49.67065489 98.47696666 -46.65840055 98.92486451 -42 99 C-41.82984375 98.443125 -41.6596875 97.88625 -41.484375 97.3125 C-40.2465043 93.41452418 -39.01557667 89.92960866 -36.875 86.4375 C-34.45958085 81.88010538 -34.53916577 77.12622265 -34.36499023 72.09155273 C-34.12379898 66.10114963 -32.9167571 60.68999592 -31 55 C-29.02 54.505 -29.02 54.505 -27 54 C-26.20046862 57.28696233 -25.90341064 58.71023192 -27 62 C-24.69 61.34 -22.38 60.68 -20 60 C-19.80341192 58.58456585 -19.61812454 57.16755969 -19.4375 55.75 C-19.28087891 54.56664063 -19.28087891 54.56664063 -19.12109375 53.359375 C-18.99898404 50.98020513 -19.3758792 49.27793584 -20 47 C-19.14450562 46.47043701 -19.14450562 46.47043701 -18.27172852 45.93017578 C-15.6987866 44.33353945 -13.13061683 42.72938464 -10.5625 41.125 C-9.66466797 40.56941406 -8.76683594 40.01382813 -7.84179688 39.44140625 C-6.98779297 38.90644531 -6.13378906 38.37148438 -5.25390625 37.8203125 C-4.46314697 37.32805176 -3.6723877 36.83579102 -2.85766602 36.32861328 C-0.86710222 35.12366236 -0.86710222 35.12366236 0 33 C-0.89307861 33.49983398 -0.89307861 33.49983398 -1.80419922 34.00976562 C-4.49204849 35.51088824 -7.1834557 37.0055136 -9.875 38.5 C-10.81214844 39.02464844 -11.74929687 39.54929688 -12.71484375 40.08984375 C-13.61074219 40.58613281 -14.50664063 41.08242188 -15.4296875 41.59375 C-16.25710449 42.05458984 -17.08452148 42.51542969 -17.93701172 42.99023438 C-20 44 -20 44 -22 44 C-22.66 46.31 -23.32 48.62 -24 51 C-25.98 51.495 -25.98 51.495 -28 52 C-29.13020155 49.06147597 -29.04975721 48.12046481 -27.8125 45.125 C-27.544375 44.09375 -27.27625 43.0625 -27 42 C-28.2739589 39.96166576 -29.61061923 37.96147874 -31 36 C-31.5625 32.875 -31.5625 32.875 -31 30 C-28.27503295 26.86215915 -26.53407297 26.09369701 -22.4375 25.375 C-19 26 -19 26 -16.5625 28.875 C-15 32 -15 32 -15 34 C-10.38 31.69 -5.76 29.38 -1 27 C-0.67 18.09 -0.34 9.18 0 0 Z M5 7 C5 10.63 5 14.26 5 18 C10.61 18 16.22 18 22 18 C21.34 17.01 20.68 16.02 20 15 C19.62430144 11.24301443 19.8357765 10.24633524 22 7 C16.39 7 10.78 7 5 7 Z M-25 31 C-25.33 31.99 -25.66 32.98 -26 34 C-24.62750037 36.67676547 -24.62750037 36.67676547 -23 39 C-21.68 38.34 -20.36 37.68 -19 37 C-19.66 35.02 -20.32 33.04 -21 31 C-22.32 31 -23.64 31 -25 31 Z M-11 48 C-13.49826905 51.9627716 -15.17395813 55.76985682 -14.8046875 60.50390625 C-13.83810199 63.5021982 -12.43171461 65.38318402 -10.4375 67.8125 C-9.79683594 68.60269531 -9.15617187 69.39289063 -8.49609375 70.20703125 C-8.00238281 70.79871094 -7.50867188 71.39039062 -7 72 C-3.45481116 70.60240095 -3.45481116 70.60240095 0 69 C0 59.76 0 50.52 0 41 C-3.77281102 41 -8.36154168 45.6379516 -11 48 Z M-29 68 C-29.10957031 69.12277344 -29.21914063 70.24554688 -29.33203125 71.40234375 C-30.15155646 79.29886571 -31.02822418 86.57056045 -34 94 C-26.58692138 87.01052587 -23.02437008 81.36601369 -22 71 C-21.97475037 69.33352461 -21.96691386 67.66633823 -22 66 C-24.6465335 66 -26.5808163 66.98139634 -29 68 Z M-17 68 C-17.33 69.65 -17.66 71.3 -18 73 C-16.515 73.99 -16.515 73.99 -15 75 C-14.26953125 77.8203125 -14.26953125 77.8203125 -13.8125 81.125 C-13.65394531 82.22070312 -13.49539062 83.31640625 -13.33203125 84.4453125 C-13.22246094 85.28835937 -13.11289063 86.13140625 -13 87 C-12.67 87 -12.34 87 -12 87 C-10.55251784 79.26709815 -10.55251784 79.26709815 -12.01171875 71.80078125 C-13.4721449 69.97787569 -13.4721449 69.97787569 -16 68 C-16.33 68 -16.66 68 -17 68 Z M-2 75 C-2.08790975 77.29151417 -2.10694038 79.58572524 -2.09765625 81.87890625 C-2.09553383 82.90889992 -2.09553383 82.90889992 -2.09336853 83.95970154 C-2.08775479 86.16067801 -2.07520007 88.36155409 -2.0625 90.5625 C-2.05748676 92.05143083 -2.05292355 93.54036324 -2.04882812 95.02929688 C-2.03778093 98.68623075 -2.02050713 102.34310558 -2 106 C-3.32 106 -4.64 106 -6 106 C-6.06058594 105.07316406 -6.12117188 104.14632812 -6.18359375 103.19140625 C-6.30927734 101.39509766 -6.30927734 101.39509766 -6.4375 99.5625 C-6.51871094 98.36753906 -6.59992188 97.17257813 -6.68359375 95.94140625 C-6.67656114 93.11429756 -6.67656114 93.11429756 -8 92 C-10.84335048 91.90013025 -13.65697163 91.86122119 -16.5 91.875 C-17.29792969 91.87113281 -18.09585938 91.86726563 -18.91796875 91.86328125 C-22.7683932 91.4910039 -22.7683932 91.4910039 -26 93 C-26.08790975 95.29151417 -26.10694038 97.58572524 -26.09765625 99.87890625 C-26.0962413 100.5655687 -26.09482635 101.25223114 -26.09336853 101.95970154 C-26.08775479 104.16067801 -26.07520007 106.36155409 -26.0625 108.5625 C-26.05748676 110.05143083 -26.05292355 111.54036324 -26.04882812 113.02929688 C-26.03863021 116.68626805 -26.01905779 120.34302117 -26 124 C-19.73 124 -13.46 124 -7 124 C-6.67 119.71 -6.34 115.42 -6 111 C-4.68 111 -3.36 111 -2 111 C-2 115.29 -2 119.58 -2 124 C4.6 124 11.2 124 18 124 C18.02464201 117.03996034 18.04283222 110.07994584 18.05493164 103.11987305 C18.05997341 100.75007688 18.06680665 98.38028385 18.07543945 96.01049805 C18.0875119 92.61245961 18.09322971 89.21446215 18.09765625 85.81640625 C18.10281754 84.74975235 18.10797882 83.68309845 18.11329651 82.5841217 C18.11337204 81.60318039 18.11344757 80.62223907 18.11352539 79.61157227 C18.115746 78.74331314 18.11796661 77.87505402 18.12025452 76.98048401 C18.21954667 74.99856319 18.21954667 74.99856319 17 74 C15.66956375 73.9016279 14.33406656 73.86921408 13 73.8671875 C12.195625 73.86589844 11.39125 73.86460938 10.5625 73.86328125 C9.716875 73.86714844 8.87125 73.87101562 8 73.875 C7.154375 73.87113281 6.30875 73.86726563 5.4375 73.86328125 C4.633125 73.86457031 3.82875 73.86585937 3 73.8671875 C1.88625 73.86887939 1.88625 73.86887939 0.75 73.87060547 C-1.02825811 73.81057784 -1.02825811 73.81057784 -2 75 Z M-19 78 C-19.99 80.97 -20.98 83.94 -22 87 C-20.68 87 -19.36 87 -18 87 C-18 84.03 -18 81.06 -18 78 C-18.33 78 -18.66 78 -19 78 Z M-49 104 C-51.03120707 107.04681061 -51.24659875 107.60118324 -51.1953125 111.01171875 C-51.19031738 111.69451904 -51.18532227 112.37731934 -51.18017578 113.08081055 C-51.16196777 113.94101807 -51.14375977 114.80122559 -51.125 115.6875 C-51.08375 118.430625 -51.0425 121.17375 -51 124 C-44.4 124 -37.8 124 -31 124 C-30.979375 120.885625 -30.95875 117.77125 -30.9375 114.5625 C-30.928396 113.57967041 -30.91929199 112.59684082 -30.90991211 111.58422852 C-30.90741455 110.81522217 -30.90491699 110.04621582 -30.90234375 109.25390625 C-30.89710693 108.46314697 -30.89187012 107.6723877 -30.88647461 106.85766602 C-30.79504091 104.98407311 -30.79504091 104.98407311 -32 104 C-34.82586751 103.84677256 -37.61043882 103.76837245 -40.4375 103.75 C-41.22705078 103.729375 -42.01660156 103.70875 -42.83007812 103.6875 C-45.38938608 103.63526414 -45.38938608 103.63526414 -49 104 Z M-75 117 C-75 119.31 -75 121.62 -75 124 C-68.4 124 -61.8 124 -55 124 C-55 121.69 -55 119.38 -55 117 C-57.55948999 114.44051001 -59.27207195 114.73931269 -62.765625 114.7265625 C-63.87164062 114.73816406 -63.87164062 114.73816406 -65 114.75 C-65.73734375 114.74226563 -66.4746875 114.73453125 -67.234375 114.7265625 C-71.58421903 114.58991135 -71.58421903 114.58991135 -75 117 Z " fill="#000000" transform="translate(92,0)"/>
</svg>
