<?xml version="1.0" encoding="UTF-8"?>
<svg version="1.1" xmlns="http://www.w3.org/2000/svg" width="128" height="128">
<path d="M0 0 C1.39453125 2.171875 1.39453125 2.171875 2 4 C0.28515625 5.109375 0.28515625 5.109375 -2 6 C-4.19140625 5.390625 -4.19140625 5.390625 -6.5625 4.25 C-17.93202485 -0.65352315 -29.73453888 -1.32332659 -41.5625 2.625 C-56.21332462 8.59622401 -65.91727762 16.69096849 -72.80859375 31.04296875 C-75.36734218 37.39369845 -76.36228472 42.97350593 -76.3125 49.75 C-76.30758545 50.54277344 -76.3026709 51.33554688 -76.29760742 52.15234375 C-76.17200317 58.46991568 -75.3356596 64.08993017 -73 70 C-72.67128906 70.83660156 -72.34257813 71.67320313 -72.00390625 72.53515625 C-67.06268107 83.59734549 -58.29540268 92.48997247 -47.12890625 97.21484375 C-33.08040336 102.45737936 -17.92840035 103.23933613 -4 97 C8.34349922 90.4983394 17.21438991 81.53756843 21.8125 68.1875 C25.86864549 55.08492095 25.1539328 41.62610045 20 29 C19.64045873 27.6734937 19.29648991 26.34200694 19 25 C20.32 24.34 21.64 23.68 23 23 C31.27139929 33.09632119 31.04877987 46.99665444 30.27050781 59.38378906 C29.1763261 69.96614581 24.64732038 78.78769277 18 87 C17.236875 88.051875 16.47375 89.10375 15.6875 90.1875 C6.5785417 99.72013078 -6.73405637 106.68180961 -20.0078125 107.46875 C-21.71323216 107.50287158 -23.41928627 107.51269563 -25.125 107.5 C-26.4869751 107.49141968 -26.4869751 107.49141968 -27.87646484 107.48266602 C-42.68303445 107.0964416 -55.78413806 101.86860991 -66.75 91.75 C-79.39101888 78.13892691 -82.72759543 62.1296078 -82.13183594 44.20166016 C-81.25000863 29.47514414 -73.65286398 16.81552096 -63 7 C-46.28978769 -6.66260017 -19.31671745 -10.4712591 0 0 Z " fill="#000000" transform="translate(90,13)"/>
<path d="M0 0 C1.6875 1.265625 1.6875 1.265625 2.4375 3.40625 C2.52 4.01984375 2.6025 4.6334375 2.6875 5.265625 C-1.23951691 6.56596173 -3.32502858 5.55691198 -7.12109375 4.046875 C-15.08190458 1.20879627 -22.49659864 2.34243643 -30.3125 5.265625 C-32.8727932 6.72758953 -35.21623291 8.28656681 -37.5703125 10.05859375 C-39.3125 11.265625 -39.3125 11.265625 -41.3125 11.265625 C-41.68375 12.07 -41.68375 12.07 -42.0625 12.890625 C-43.3125 15.265625 -43.3125 15.265625 -45.3125 18.140625 C-50.30892863 25.94754473 -50.03235343 34.34299731 -49.3125 43.265625 C-48.44060842 46.64008108 -47.17158174 49.33119205 -45.3125 52.265625 C-44.93867187 52.89855469 -44.56484375 53.53148437 -44.1796875 54.18359375 C-39.24968171 61.83979479 -31.91004656 65.81942367 -23.15625 67.73828125 C-14.42392238 69.07580326 -5.67555032 67.17432522 1.6875 62.265625 C9.52807535 55.99316472 14.05359557 48.01997035 15.54296875 38.109375 C15.83406529 32.38185398 14.7643984 26.88149523 12.5859375 21.58984375 C11.57137185 18.96520652 11.72704972 17.85884074 12.6875 15.265625 C15.22308858 15.61187134 16.36743719 15.84776522 17.953125 17.91796875 C22.08247168 27.50395212 22.70206876 40.0117955 19.0625 49.890625 C14.03138626 60.16468886 6.34967682 67.9787704 -4.3125 72.265625 C-13.35269796 75.31974593 -25.50435553 74.11102464 -34.08984375 70.39453125 C-45.15422405 64.77483721 -51.06784438 57.10292485 -54.92578125 45.40625 C-57.02449741 33.78911409 -55.21830567 23.26913861 -49.5 13.015625 C-37.55884863 -1.99610815 -18.07237313 -7.69296964 0 0 Z " fill="#000000" transform="translate(81.3125,28.734375)"/>
<path d="M0 0 C0.495 4.95 0.495 4.95 1 10 C4.3 10.33 7.6 10.66 11 11 C11 17.44230488 9.10552882 18.87065631 4.8125 23.25 C4.25369141 23.88679688 3.69488281 24.52359375 3.11914062 25.1796875 C0.21990211 28.15814018 -1.6981134 29.90348807 -5.94750977 30.21850586 C-7.02186279 30.20182861 -8.09621582 30.18515137 -9.203125 30.16796875 C-16.08401584 30.35542653 -19.38072437 33.2402253 -23.9329071 37.95828247 C-25.49850663 39.64062227 -27.03185823 41.34834541 -28.5625 43.0625 C-30.13636263 44.77696777 -31.7187757 46.48228071 -33.31272888 48.17808533 C-34.29557184 49.22850902 -35.26573187 50.29098375 -36.22108459 51.36647034 C-37.54907227 52.81274414 -37.54907227 52.81274414 -40 55 C-41.32 55 -42.64 55 -44 55 C-43.58856799 50.05396791 -41.52232631 48.18388943 -37.90625 44.9375 C-36.86471548 43.96609663 -35.8243889 42.99339682 -34.78515625 42.01953125 C-33.15150753 40.50902925 -31.51108675 39.00984215 -29.84716797 37.53271484 C-22.95330815 31.63551271 -22.95330815 31.63551271 -19.29589844 23.6262207 C-19.23513742 21.4073242 -19.21442527 19.18688523 -19.23828125 16.96728516 C-18.83131671 11.89940916 -15.92150172 9.40935425 -12.25 6.1875 C-11.62867188 5.57841797 -11.00734375 4.96933594 -10.3671875 4.34179688 C-5.73723988 0 -5.73723988 0 0 0 Z M-12.03125 14.46484375 C-14.09561104 17.12311818 -14.60977625 18.25907231 -14.5625 21.5625 C-14.376875 22.696875 -14.19125 23.83125 -14 25 C-10.8285554 25.51896366 -9.06351027 25.76461997 -6 25 C-2.59043646 22.35220335 0.27179189 19.34079187 3 16 C3 15.67 3 15.34 3 15 C0.03 14.505 0.03 14.505 -3 14 C-3.33 12.02 -3.66 10.04 -4 8 C-6.85804779 8 -10.14676835 12.58334387 -12.03125 14.46484375 Z " fill="#000000" transform="translate(106,11)"/>
<path d="M0 0 C1.74216797 0.02707031 1.74216797 0.02707031 3.51953125 0.0546875 C4.39996094 0.07789063 5.28039062 0.10109375 6.1875 0.125 C6.5175 1.775 6.8475 3.425 7.1875 5.125 C6.31867188 5.15078125 5.44984375 5.1765625 4.5546875 5.203125 C-4.47230215 5.50719355 -4.47230215 5.50719355 -11.8125 10.125 C-15.19820467 13.96213196 -15.32541172 17.75901462 -15.1640625 22.6875 C-14.49154883 27.35026146 -12.11367669 29.97690292 -8.6875 33 C-4.36901358 34.68984251 -0.3857948 34.78460983 4.1875 34.125 C8.7388585 31.89069674 10.95328377 29.61867783 13.1875 25.125 C13.75904439 21.78001601 13.75904439 21.78001601 13.875 18.3125 C13.94074219 17.15105469 14.00648437 15.98960938 14.07421875 14.79296875 C14.11160156 13.91253906 14.14898437 13.03210937 14.1875 12.125 C16.6625 12.62 16.6625 12.62 19.1875 13.125 C19.81039888 21.23422057 20.21731538 27.78455241 14.9375 34.34765625 C10.04854956 39.31299654 6.59813757 40.36404326 -0.25 40.625 C-7.43244231 40.38558526 -12.16349512 38.84371554 -17.1875 33.6875 C-21.21027885 27.3438872 -21.58712836 21.49831437 -20.8125 14.125 C-19.20943965 8.76124673 -16.58301682 5.15020579 -11.8125 2.125 C-7.75273264 0.13770129 -4.49673807 -0.09084319 0 0 Z " fill="#000000" transform="translate(64.8125,43.875)"/>
</svg>
