<?xml version="1.0" encoding="UTF-8"?>
<svg version="1.1" xmlns="http://www.w3.org/2000/svg" width="128" height="128">
<path d="M0 0 C1.3303125 0.00773438 1.3303125 0.00773438 2.6875 0.015625 C3.574375 0.01046875 4.46125 0.0053125 5.375 0 C7.6875 0.265625 7.6875 0.265625 9.6875 2.265625 C9.8125 4.890625 9.8125 4.890625 9.6875 7.265625 C11.5746875 7.4203125 11.5746875 7.4203125 13.5 7.578125 C15.64453125 7.75390625 15.64453125 7.75390625 17.6875 8.265625 C18.10418945 8.76280029 18.52087891 9.25997559 18.95019531 9.7722168 C21.43963655 11.91217071 23.2810621 11.64991537 26.52734375 11.671875 C28.2453418 11.70474609 28.2453418 11.70474609 29.99804688 11.73828125 C31.79338867 11.75181641 31.79338867 11.75181641 33.625 11.765625 C35.98842025 11.78350068 38.35178743 11.8142126 40.71484375 11.859375 C41.76406006 11.86646484 42.81327637 11.87355469 43.89428711 11.88085938 C47.08628963 12.32055835 48.44310317 12.97419283 50.6875 15.265625 C51.75400341 18.41907289 51.80876129 21.36579333 51.80102539 24.67675781 C51.80091209 26.29798553 51.80091209 26.29798553 51.80079651 27.95196533 C51.79563522 29.11250427 51.79047394 30.27304321 51.78515625 31.46875 C51.7837413 32.66167664 51.78232635 33.85460327 51.78086853 35.0836792 C51.77527038 38.89435329 51.76271819 42.70496866 51.75 46.515625 C51.74498476 49.09895748 51.7404219 51.68229089 51.73632812 54.265625 C51.72530155 60.59897837 51.70856524 66.93229749 51.6875 73.265625 C54.840868 73.96637344 57.41474974 74.265625 60.6875 74.265625 C61.0175 73.935625 61.3475 73.605625 61.6875 73.265625 C61.65540365 71.82712497 61.58697283 70.38935208 61.5 68.953125 C61.46819047 65.62372748 61.49335305 64.56044073 63.375 61.703125 C66.06234955 60.03261042 67.57906165 59.92024296 70.6875 60.265625 C71.6775 63.730625 71.6775 63.730625 72.6875 67.265625 C74.6675 67.595625 76.6475 67.925625 78.6875 68.265625 C79.03288204 71.37406335 78.92051458 72.89077545 77.25 75.578125 C73.49516223 78.05082305 70.05998747 77.60197019 65.6875 77.265625 C64.54419333 79.10896276 64.54419333 79.10896276 63.6875 81.265625 C64.66876556 83.27488305 65.6724911 85.27320011 66.6875 87.265625 C68.4657602 94.02820576 67.47155991 99.91753509 64.6875 106.265625 C61.57401092 110.98033704 58.17302036 113.27637161 53.4140625 116.0390625 C51.05029938 117.71829694 50.4977609 119.54020196 49.6875 122.265625 C45.94888327 124.75803615 43.02868366 124.56125896 38.69946289 124.55615234 C37.47949364 124.56622818 37.47949364 124.56622818 36.23487854 124.57650757 C33.5432425 124.59552346 30.8518553 124.59941343 28.16015625 124.6015625 C26.29072466 124.6079875 24.42129408 124.61471563 22.55186462 124.62173462 C18.6319648 124.63371605 14.71215317 124.63741451 10.79223633 124.63623047 C5.76702772 124.63602713 0.74238371 124.66334073 -4.282691 124.69777489 C-8.14399315 124.7200009 -12.00515844 124.72406935 -15.86651802 124.72301102 C-17.71930451 124.72537302 -19.57209443 124.73423017 -21.42481804 124.74967575 C-24.0153051 124.76925092 -26.6045619 124.7635318 -29.19506836 124.75146484 C-29.96143616 124.76270386 -30.72780396 124.77394287 -31.51739502 124.78552246 C-34.72358475 124.74753027 -36.98375661 124.45281301 -39.78749084 122.85635376 C-42.17162921 118.80611196 -41.86936779 114.94671357 -41.83007812 110.328125 C-41.8370874 109.31959473 -41.84409668 108.31106445 -41.85131836 107.27197266 C-41.86893218 103.93624386 -41.8572631 100.60136252 -41.84375 97.265625 C-41.84644393 94.94921709 -41.85032551 92.63281028 -41.85534668 90.31640625 C-41.86124634 85.46082802 -41.85266338 80.60554404 -41.83398438 75.75 C-41.81119496 69.52197854 -41.82431548 63.29464655 -41.84827423 57.06665039 C-41.86271932 52.28315015 -41.85813205 47.49981373 -41.84776306 42.71630859 C-41.84509223 40.41975829 -41.848378 38.12319317 -41.85768127 35.82666016 C-41.86782527 32.6184136 -41.85237483 29.41128794 -41.83007812 26.203125 C-41.83817505 25.25131348 -41.84627197 24.29950195 -41.85461426 23.31884766 C-41.77182781 16.89816734 -41.77182781 16.89816734 -39.43177795 13.67567444 C-36.84078756 11.95177383 -35.31279712 11.76823003 -32.21484375 11.76171875 C-31.24869141 11.74302734 -30.28253906 11.72433594 -29.28710938 11.70507812 C-28.28486328 11.70443359 -27.28261719 11.70378906 -26.25 11.703125 C-24.25901155 11.6941968 -22.26802846 11.67262288 -20.27734375 11.63671875 C-18.95657837 11.6356311 -18.95657837 11.6356311 -17.60913086 11.63452148 C-14.85073785 11.19145442 -14.11075468 10.32515316 -12.3125 8.265625 C-9.63931142 7.59605004 -7.07424963 7.49199792 -4.3125 7.265625 C-4.35375 6.481875 -4.395 5.698125 -4.4375 4.890625 C-4.27270907 1.43001538 -3.48060812 0.39979958 0 0 Z M0.6875 4.265625 C0.6875 7.235625 0.6875 10.205625 0.6875 13.265625 C2.0075 13.265625 3.3275 13.265625 4.6875 13.265625 C4.6875 10.295625 4.6875 7.325625 4.6875 4.265625 C3.3675 4.265625 2.0475 4.265625 0.6875 4.265625 Z M-11.625 14.328125 C-13.8936452 17.71263021 -13.8936452 17.71263021 -13.3125 24.265625 C-2.7525 24.265625 7.8075 24.265625 18.6875 24.265625 C19.2686452 17.71263021 19.2686452 17.71263021 17 14.328125 C14.85638381 12.01689916 14.85638381 12.01689916 11.9375 11.953125 C11.195 12.05625 10.4525 12.159375 9.6875 12.265625 C9.3575 13.915625 9.0275 15.565625 8.6875 17.265625 C5.0575 17.265625 1.4275 17.265625 -2.3125 17.265625 C-2.9725 15.615625 -3.6325 13.965625 -4.3125 12.265625 C-7.82273278 11.77809267 -8.92628869 11.92116627 -11.625 14.328125 Z M-37.3125 18.265625 C-37.76266168 20.12351926 -37.76266168 20.12351926 -37.6867218 22.2890625 C-37.69373611 23.13033691 -37.70075043 23.97161133 -37.70797729 24.83837891 C-37.70033356 25.76312012 -37.69268982 26.68786133 -37.68481445 27.640625 C-37.68846512 28.61306152 -37.69211578 29.58549805 -37.69587708 30.58740234 C-37.70400749 33.81365219 -37.69035165 37.03940369 -37.67578125 40.265625 C-37.67526294 42.5 -37.6757795 44.73437546 -37.67729187 46.96875 C-37.67720203 51.65631906 -37.66674949 56.34371653 -37.64868164 61.03125 C-37.62599418 67.05085456 -37.62544919 73.07020821 -37.63219929 79.08984375 C-37.63553498 83.70510096 -37.62891672 88.32030058 -37.61907005 92.93554688 C-37.61521086 95.1555959 -37.6140728 97.37565131 -37.6156559 99.59570312 C-37.61602526 102.69413538 -37.60344269 105.79224155 -37.5871582 108.890625 C-37.58963562 109.81536621 -37.59211304 110.74010742 -37.59466553 111.69287109 C-37.58758072 112.53414551 -37.58049591 113.37541992 -37.57319641 114.2421875 C-37.57114354 114.97518066 -37.56909067 115.70817383 -37.56697559 116.46337891 C-37.46109545 118.51789581 -37.46109545 118.51789581 -35.3125 120.265625 C-32.76392353 120.46917039 -30.32353978 120.5488469 -27.7734375 120.5402832 C-26.99607239 120.54539413 -26.21870728 120.55050507 -25.41778564 120.55577087 C-22.84094607 120.56970334 -20.26437282 120.56870756 -17.6875 120.56640625 C-15.90152893 120.57029085 -14.11555878 120.57462503 -12.32958984 120.57939148 C-8.5836284 120.58686132 -4.8377612 120.58655667 -1.09179688 120.58129883 C3.71720059 120.57549971 8.52581348 120.59244207 13.33474731 120.6156435 C17.02354196 120.63034812 20.71224325 120.63125709 24.40106201 120.62813377 C26.17454796 120.62864852 27.94803893 120.63391491 29.72149658 120.64394569 C32.19740074 120.65623133 34.67254622 120.64956674 37.1484375 120.63793945 C38.25502716 120.64940506 38.25502716 120.64940506 39.38397217 120.66110229 C41.63319936 120.67285576 41.63319936 120.67285576 44.6875 120.265625 C45.6775 118.780625 45.6775 118.780625 46.6875 117.265625 C38.46336212 115.16298943 30.52532287 114.98577163 22.0703125 114.9921875 C20.68170247 114.98361011 19.2931006 114.97360469 17.9045105 114.96224976 C12.05519229 114.91635535 6.20593805 114.89133791 0.35644531 114.88476562 C-3.2409156 114.8797527 -6.83773305 114.85553689 -10.43490982 114.81943893 C-11.79920312 114.80965645 -13.16357121 114.80730058 -14.52788925 114.81261063 C-16.42990675 114.81967749 -18.33196689 114.80031502 -20.23388672 114.77978516 C-21.31403046 114.77693512 -22.39417419 114.77408508 -23.50704956 114.77114868 C-26.9989922 114.14192363 -28.15423747 113.0303227 -30.3125 110.265625 C-31.4898278 106.73364159 -31.46783897 103.53559795 -31.47363281 99.86010742 C-31.47859772 99.10852859 -31.48356262 98.35694977 -31.48867798 97.58259583 C-31.50328625 95.09541915 -31.51009965 92.60830628 -31.515625 90.12109375 C-31.52137791 88.39097594 -31.52713562 86.66085814 -31.53289795 84.93074036 C-31.54340438 81.30172428 -31.54924927 77.67273032 -31.55273438 74.04370117 C-31.5582159 69.39993494 -31.58223805 64.7564624 -31.61070633 60.1127882 C-31.62935689 56.53794 -31.63453961 52.96316217 -31.63607025 49.38826942 C-31.63909226 47.67669381 -31.64710553 45.9651193 -31.66025543 44.25359154 C-31.67736544 41.8552778 -31.67542376 39.45767667 -31.66894531 37.05932617 C-31.6781601 36.35625336 -31.68737488 35.65318054 -31.6968689 34.92880249 C-31.65809045 30.33166273 -30.79062084 27.14419416 -28.3125 23.265625 C-25.61328125 22.2421875 -25.61328125 22.2421875 -22.625 21.890625 C-21.63113281 21.75914063 -20.63726563 21.62765625 -19.61328125 21.4921875 C-18.85402344 21.41742187 -18.09476563 21.34265625 -17.3125 21.265625 C-17.3125 19.615625 -17.3125 17.965625 -17.3125 16.265625 C-20.08359307 16.21170103 -22.85363818 16.17199045 -25.625 16.140625 C-26.41068359 16.12386719 -27.19636719 16.10710938 -28.00585938 16.08984375 C-28.76318359 16.08339844 -29.52050781 16.07695312 -30.30078125 16.0703125 C-30.99727783 16.05983887 -31.69377441 16.04936523 -32.41137695 16.03857422 C-34.643673 16.15987905 -34.643673 16.15987905 -37.3125 18.265625 Z M22.6875 16.265625 C22.6875 17.915625 22.6875 19.565625 22.6875 21.265625 C23.50734375 21.31460937 24.3271875 21.36359375 25.171875 21.4140625 C26.24953125 21.48882813 27.3271875 21.56359375 28.4375 21.640625 C30.03851563 21.74503906 30.03851563 21.74503906 31.671875 21.8515625 C34.56208409 22.24840468 36.31059827 22.6060765 38.6875 24.265625 C40.44778879 27.16829764 40.94820634 29.38659293 41.00634766 32.75878906 C41.02621735 33.63940002 41.04608704 34.52001099 41.06655884 35.42730713 C41.07811005 36.36910828 41.08966125 37.31090942 41.1015625 38.28125 C41.12092865 39.25221619 41.1402948 40.22318237 41.1602478 41.22357178 C41.21996509 44.32083386 41.2663978 47.41813326 41.3125 50.515625 C41.35068698 52.61720359 41.38973914 54.71876665 41.4296875 56.8203125 C41.52566031 61.96862368 41.6097206 67.11700812 41.6875 72.265625 C43.3375 72.265625 44.9875 72.265625 46.6875 72.265625 C46.76336651 64.61188076 46.81602217 56.95823293 46.85229492 49.30419922 C46.86741108 46.69869361 46.88790432 44.09321356 46.91381836 41.48779297 C46.95007688 37.74961044 46.96719798 34.01176335 46.98046875 30.2734375 C46.99595261 29.10257599 47.01143646 27.93171448 47.02738953 26.72537231 C47.02761612 25.64440277 47.02784271 24.56343323 47.02807617 23.44970703 C47.03473801 22.49484406 47.04139984 21.53998108 47.04826355 20.55618286 C46.86968559 19.42235672 46.86968559 19.42235672 46.6875 18.265625 C43.43360012 16.09635841 42.55354043 16.02482451 38.80078125 16.0703125 C37.86298828 16.07675781 36.92519531 16.08320313 35.95898438 16.08984375 C34.98251953 16.10660156 34.00605469 16.12335937 33 16.140625 C31.51790039 16.15416016 31.51790039 16.15416016 30.00585938 16.16796875 C27.56616235 16.1915407 25.12695303 16.22444478 22.6875 16.265625 Z M-27.3125 28.265625 C-27.82327995 31.01201791 -27.98750454 33.15178037 -27.94360352 35.90234375 C-27.95075882 36.6782486 -27.95791412 37.45415344 -27.96528625 38.25357056 C-27.9822079 40.82068601 -27.96275217 43.3860635 -27.94140625 45.953125 C-27.94223464 47.73527166 -27.94469288 49.51741824 -27.94871521 51.29956055 C-27.95157557 55.03555281 -27.93684924 58.77094634 -27.90942383 62.50683594 C-27.8753403 67.29908153 -27.8813568 72.09025625 -27.9000864 76.8825531 C-27.91064796 80.56287584 -27.90172633 84.24294879 -27.88670158 87.92324829 C-27.88151308 89.69031025 -27.88200966 91.45739822 -27.88824654 93.22445679 C-27.89368873 95.69317847 -27.87335776 98.16036001 -27.84594727 100.62890625 C-27.85247314 101.36146637 -27.85899902 102.09402649 -27.86572266 102.8487854 C-27.8063378 105.98929713 -27.70900674 107.81117641 -25.60588074 110.22163391 C-22.9049981 111.45112772 -21.0503568 111.62779386 -18.08496094 111.60620117 C-17.04418396 111.60597458 -16.00340698 111.60574799 -14.93109131 111.60551453 C-13.81429993 111.59003067 -12.69750854 111.57454681 -11.546875 111.55859375 C-10.39834045 111.55434891 -9.24980591 111.55010406 -8.06646729 111.54573059 C-4.3982397 111.52893833 -0.73056153 111.49128398 2.9375 111.453125 C5.42447123 111.43807892 7.91145108 111.42439039 10.3984375 111.41210938 C16.49497912 111.37903296 22.59120031 111.32882756 28.6875 111.265625 C28.33816406 110.66234375 27.98882812 110.0590625 27.62890625 109.4375 C27.17386719 108.63828125 26.71882813 107.8390625 26.25 107.015625 C25.79753906 106.22671875 25.34507813 105.4378125 24.87890625 104.625 C23.6875 102.265625 23.6875 102.265625 22.6875 98.265625 C14.7675 98.265625 6.8475 98.265625 -1.3125 98.265625 C-1.3125 96.945625 -1.3125 95.625625 -1.3125 94.265625 C6.2775 94.265625 13.8675 94.265625 21.6875 94.265625 C22.6775 90.965625 23.6675 87.665625 24.6875 84.265625 C28.08128108 78.4207798 30.87734344 76.51994766 36.6875 73.265625 C36.81412639 66.91208135 36.90177701 60.55886211 36.9621582 54.2043457 C36.98732499 52.04211264 37.02146158 49.87996482 37.06469727 47.71801758 C37.12525296 44.61257928 37.15368787 41.50826403 37.17578125 38.40234375 C37.20158768 37.43350754 37.2273941 36.46467133 37.25398254 35.46647644 C37.25503064 32.96677444 37.21797602 30.7083763 36.6875 28.265625 C33.51593271 25.4432689 31.05565178 24.89093164 26.875 25.078125 C26.08480469 25.10519531 25.29460937 25.13226562 24.48046875 25.16015625 C23.59294922 25.21236328 23.59294922 25.21236328 22.6875 25.265625 C22.3575 26.255625 22.0275 27.245625 21.6875 28.265625 C9.1475 28.265625 -3.3925 28.265625 -16.3125 28.265625 C-16.6425 27.275625 -16.9725 26.285625 -17.3125 25.265625 C-21.5850425 24.89940707 -23.99247136 25.50475344 -27.3125 28.265625 Z M66.6875 66.265625 C67.6875 69.265625 67.6875 69.265625 67.6875 69.265625 Z M67.6875 69.265625 C67.6875 69.925625 67.6875 70.585625 67.6875 71.265625 C68.3475 70.935625 69.0075 70.605625 69.6875 70.265625 C69.0275 69.935625 68.3675 69.605625 67.6875 69.265625 Z M29.75 83.328125 C26.17372851 88.42160257 26.03399331 93.21838703 26.6875 99.265625 C28.49926606 104.65951137 32.20435666 108.02250003 36.6875 111.265625 C41.52864615 112.87934038 46.87361383 113.24252133 51.7578125 111.546875 C56.53232901 108.98393107 59.40024998 105.64703754 61.9375 100.953125 C63.40845263 95.68221143 63.30854365 91.71472685 61.1875 86.765625 C60.6925 85.940625 60.1975 85.115625 59.6875 84.265625 C57.7075 85.255625 57.7075 85.255625 55.6875 86.265625 C56.0175 87.255625 56.3475 88.245625 56.6875 89.265625 C57.08544908 93.78081647 57.17615235 97.91464497 55.625 102.203125 C52.53368025 105.49388473 49.1918238 107.14682406 44.62890625 107.36328125 C39.87311676 106.99468509 36.89667564 105.7579632 33.6875 102.265625 C31.36928435 97.6291937 31.09205542 93.17313176 32.6875 88.265625 C34.88007809 85.62328731 36.62089618 83.79892691 39.6875 82.265625 C41.33106807 82.16977369 42.97864642 82.13578989 44.625 82.140625 C45.50027344 82.13804688 46.37554687 82.13546875 47.27734375 82.1328125 C49.6875 82.265625 49.6875 82.265625 52.6875 83.265625 C53.3475 81.945625 54.0075 80.625625 54.6875 79.265625 C45.73461725 73.89389535 36.55200679 75.4901804 29.75 83.328125 Z M38.8125 87.078125 C36.32993411 89.63370753 35.76684707 90.55150134 35.375 94.078125 C35.75914358 97.9963895 36.98006317 99.47855767 39.6875 102.265625 C42.54074437 103.69224719 44.52204549 103.57596368 47.6875 103.265625 C50.6190113 101.8371189 50.6190113 101.8371189 52.6875 99.265625 C53.75431009 95.71988642 53.75431009 95.71988642 53.6875 92.265625 C53.0275 91.605625 52.3675 90.945625 51.6875 90.265625 C50.945 91.07 50.2025 91.874375 49.4375 92.703125 C46.93445171 95.03551091 45.9694045 95.90096894 42.6875 96.265625 C44.0572164 92.27061882 45.94472422 89.46553008 48.6875 86.265625 C43.51955623 85.00362477 43.51955623 85.00362477 38.8125 87.078125 Z " fill="#000000" transform="translate(45.3125,1.734375)"/>
<path d="M0 0 C8.91 0 17.82 0 27 0 C27.33 1.32 27.66 2.64 28 4 C27 5 27 5 24.31616211 5.11352539 C23.14835205 5.10828857 21.98054199 5.10305176 20.77734375 5.09765625 C19.51728516 5.09443359 18.25722656 5.09121094 16.95898438 5.08789062 C15.61848891 5.07953403 14.27799412 5.07106907 12.9375 5.0625 C11.59310058 5.0574866 10.2486994 5.05292342 8.90429688 5.04882812 C5.60282059 5.03699488 2.30143197 5.02050971 -1 5 C-0.67 3.35 -0.34 1.7 0 0 Z " fill="#000000" transform="translate(45,48)"/>
<path d="M0 0 C9.57 0 19.14 0 29 0 C29 1.32 29 2.64 29 4 C19.43 4 9.86 4 0 4 C0 2.68 0 1.36 0 0 Z " fill="#000000" transform="translate(44,73)"/>
<path d="M0 0 C2.1875 0.3125 2.1875 0.3125 4 1 C3.52753358 5.25219775 1.22727623 7.37314725 -2 10 C-5.06731977 9.91236229 -5.81352381 9.18647619 -8 7 C-8 5.68 -8 4.36 -8 3 C-6.8553125 3.0928125 -6.8553125 3.0928125 -5.6875 3.1875 C-2.95010308 3.29186282 -2.95010308 3.29186282 -1.4375 1.4375 C-0.963125 0.963125 -0.48875 0.48875 0 0 Z " fill="#000000" transform="translate(34,46)"/>
<path d="M0 0 C2.1875 0.3125 2.1875 0.3125 4 1 C2.64978174 5.41889613 0.73884332 7.34345343 -3 10 C-5.5 8.75 -5.5 8.75 -8 7 C-8 5.68 -8 4.36 -8 3 C-6.8553125 3.0928125 -6.8553125 3.0928125 -5.6875 3.1875 C-2.95010308 3.29186282 -2.95010308 3.29186282 -1.4375 1.4375 C-0.963125 0.963125 -0.48875 0.48875 0 0 Z " fill="#000000" transform="translate(34,93)"/>
<path d="M0 0 C0.5775 0.226875 1.155 0.45375 1.75 0.6875 C0.30754029 4.05323933 -1.333468 6.43760389 -4.25 8.6875 C-7 8.4375 -7 8.4375 -9.25 7.6875 C-9.58 6.0375 -9.91 4.3875 -10.25 2.6875 C-8.93 2.6875 -7.61 2.6875 -6.25 2.6875 C-5.59 2.171875 -4.93 1.65625 -4.25 1.125 C-2.25 -0.3125 -2.25 -0.3125 0 0 Z " fill="#000000" transform="translate(36.25,70.3125)"/>
</svg>
