<?xml version="1.0" encoding="UTF-8"?>
<svg version="1.1" xmlns="http://www.w3.org/2000/svg" width="128" height="128">
<path d="M0 0 C15.9687203 12.45627811 15.9687203 12.45627811 20.19628906 20.66943359 C19.97895297 28.27619683 12.56348997 34.37314741 7.45800781 39.32568359 C-8.17191793 53.03095001 -24.70260566 58.99608009 -45.45947266 57.87646484 C-64.24757976 56.2171944 -80.85324991 43.10812503 -92.74121094 29.23193359 C-95.82707224 25.48707932 -95.82707224 25.48707932 -95.73339844 22.20849609 C-90.71948035 8.51502233 -74.99915708 -1.54270529 -62.37402344 -7.70166016 C-41.77478085 -17.09978287 -18.07739531 -13.3353823 0 0 Z M-82.3203125 14.17822266 C-84.66617527 16.5364402 -86.72932304 19.07066511 -88.80371094 21.66943359 C-82.38230277 35.62364749 -67.44313797 44.0417446 -53.80371094 49.66943359 C-39.23328126 54.32088154 -26.42782544 52.4905374 -12.80371094 45.66943359 C-2.69090075 40.10669438 6.14757005 32.83276832 13.19628906 23.66943359 C7.1483476 10.52679157 -7.62207909 0.77774553 -20.80371094 -4.33056641 C-45.01494004 -11.33922121 -64.64028413 -2.33584315 -82.3203125 14.17822266 Z " fill="#000000" transform="translate(101.8037109375,41.33056640625)"/>
<path d="M0 0 C4.71929232 3.12871602 8.02995189 7.23959129 10.546875 12.2734375 C12.00127339 20.35342856 11.75266258 27.3945959 7.109375 34.3984375 C2.43516851 39.60968048 -2.09773702 42.88050964 -9.16796875 43.64453125 C-16.47802805 44.01622918 -22.41667395 42.51438596 -27.9375 37.5625 C-34.40383966 30.58847251 -35.21971605 24.64955254 -34.890625 15.3984375 C-33.015625 14.3359375 -33.015625 14.3359375 -30.890625 13.3984375 C-30.230625 13.7284375 -29.570625 14.0584375 -28.890625 14.3984375 C-28.5725457 16.4306108 -28.33651973 18.47587113 -28.140625 20.5234375 C-27.27385195 26.74099849 -25.85719732 30.48462988 -20.890625 34.3984375 C-16.8528497 36.84235413 -12.50999656 36.97131232 -7.890625 36.3984375 C-2.62468156 34.53986923 -0.09666732 31.79529554 3.109375 27.3984375 C4.76963961 22.41764367 4.70840925 18.09570121 2.984375 13.2109375 C0.16236753 8.97792629 -2.96791492 6.03934086 -7.890625 4.3984375 C-10.11880941 4.32906688 -12.34897024 4.31386666 -14.578125 4.3359375 C-15.75761719 4.34496094 -16.93710937 4.35398437 -18.15234375 4.36328125 C-19.05597656 4.37488281 -19.95960937 4.38648438 -20.890625 4.3984375 C-21.220625 2.7484375 -21.550625 1.0984375 -21.890625 -0.6015625 C-14.90986436 -4.32463484 -6.88706549 -3.44353274 0 0 Z " fill="#000000" transform="translate(75.890625,43.6015625)"/>
<path d="M0 0 C3.125 1.875 3.125 1.875 5 5 C5.98876625 10.02622846 5.7769173 13.70513784 3.125 18.125 C-1.29486216 20.7769173 -4.97377154 20.98876625 -10 20 C-13.125 18.125 -13.125 18.125 -15 15 C-15.98876625 9.97377154 -15.7769173 6.29486216 -13.125 1.875 C-8.70513784 -0.7769173 -5.02622846 -0.98876625 0 0 Z M-9 7 C-9.16666667 10 -9.16666667 10 -9 13 C-7.88163776 14.34404775 -7.88163776 14.34404775 -5 14.125 C-2.11836224 14.34404775 -2.11836224 14.34404775 -1 13 C-0.83333333 10 -0.83333333 10 -1 7 C-2.11836224 5.65595225 -2.11836224 5.65595225 -5 5.875 C-7.88163776 5.65595225 -7.88163776 5.65595225 -9 7 Z " fill="#000000" transform="translate(69,54)"/>
<path d="M0 0 C1.65 0.33 3.3 0.66 5 1 C5 7.6 5 14.2 5 21 C3.35 21.33 1.7 21.66 0 22 C-1.58937556 20.41062444 -1.12981143 18.76100154 -1.1328125 16.5625 C-1.13410156 15.66789062 -1.13539062 14.77328125 -1.13671875 13.8515625 C-1.13091797 12.44003906 -1.13091797 12.44003906 -1.125 11 C-1.12886719 10.05898437 -1.13273437 9.11796875 -1.13671875 8.1484375 C-1.13542969 7.25382812 -1.13414063 6.35921875 -1.1328125 5.4375 C-1.13112061 4.19806641 -1.13112061 4.19806641 -1.12939453 2.93359375 C-1 1 -1 1 0 0 Z " fill="#000000" transform="translate(62,106)"/>
<path d="M0 0 C1.65 0.33 3.3 0.66 5 1 C5 7.6 5 14.2 5 21 C3.35 21.33 1.7 21.66 0 22 C-1.58937556 20.41062444 -1.12981143 18.76100154 -1.1328125 16.5625 C-1.13410156 15.66789063 -1.13539062 14.77328125 -1.13671875 13.8515625 C-1.13091797 12.44003906 -1.13091797 12.44003906 -1.125 11 C-1.12886719 10.05898437 -1.13273437 9.11796875 -1.13671875 8.1484375 C-1.13542969 7.25382813 -1.13414063 6.35921875 -1.1328125 5.4375 C-1.13112061 4.19806641 -1.13112061 4.19806641 -1.12939453 2.93359375 C-1 1 -1 1 0 0 Z " fill="#000000" transform="translate(62,0)"/>
<path d="M0 0 C0.32421875 2.1328125 0.32421875 2.1328125 0 5 C-1.67682917 7.20249015 -3.22546576 8.97089488 -5.1875 10.875 C-5.67025391 11.38546875 -6.15300781 11.8959375 -6.65039062 12.421875 C-8.10546875 13.8671875 -8.10546875 13.8671875 -11 16 C-13.86328125 15.8203125 -13.86328125 15.8203125 -16 15 C-15.55042492 10.2016506 -13.60770673 8.04023971 -10.25 4.6875 C-9.38890625 3.80449219 -8.5278125 2.92148437 -7.640625 2.01171875 C-4.73707468 -0.20030553 -3.55009259 -0.4788794 0 0 Z " fill="#000000" transform="translate(114,19)"/>
<path d="M0 0 C2.1328125 -0.32421875 2.1328125 -0.32421875 5 0 C7.20249015 1.67682917 8.97089488 3.22546576 10.875 5.1875 C11.38546875 5.67025391 11.8959375 6.15300781 12.421875 6.65039062 C13.8671875 8.10546875 13.8671875 8.10546875 16 11 C15.8203125 13.86328125 15.8203125 13.86328125 15 16 C10.2016506 15.55042492 8.04023971 13.60770673 4.6875 10.25 C3.36298828 8.95835938 3.36298828 8.95835938 2.01171875 7.640625 C-0.20030553 4.73707468 -0.4788794 3.55009259 0 0 Z " fill="#000000" transform="translate(14,19)"/>
<path d="M0 0 C3.82563302 1.35855813 6.43154222 4.03160443 9.3125 6.8125 C10.66794922 8.09060547 10.66794922 8.09060547 12.05078125 9.39453125 C14 12 14 12 13.79296875 14.82421875 C13.53128906 15.54222656 13.26960938 16.26023437 13 17 C8.62938482 16.55253226 6.18062652 13.66043215 3.25 10.6875 C2.74339844 10.20087891 2.23679687 9.71425781 1.71484375 9.21289062 C-1.30480946 6.1891678 -2 5.45294674 -2 1 C-1.34 0.67 -0.68 0.34 0 0 Z " fill="#000000" transform="translate(100,95)"/>
<path d="M0 0 C0.54269531 0.27070312 1.08539063 0.54140625 1.64453125 0.8203125 C1.25410891 5.77776831 -1.26353503 8.3657499 -4.66796875 11.6953125 C-5.15458984 12.20578125 -5.64121094 12.71625 -6.14257812 13.2421875 C-7.59375 14.6875 -7.59375 14.6875 -10.35546875 16.8203125 C-12.7109375 16.640625 -12.7109375 16.640625 -14.35546875 15.8203125 C-13.96504641 10.86285669 -11.44740247 8.2748751 -8.04296875 4.9453125 C-7.55634766 4.43484375 -7.06972656 3.924375 -6.56835938 3.3984375 C-2.93159998 -0.22363781 -2.93159998 -0.22363781 0 0 Z " fill="#000000" transform="translate(28.35546875,95.1796875)"/>
<path d="M0 0 C1.65 0.33 3.3 0.66 5 1 C4.67 2.32 4.34 3.64 4 5 C2.35 4.67 0.7 4.34 -1 4 C-0.67 2.68 -0.34 1.36 0 0 Z " fill="#000000" transform="translate(47,49)"/>
</svg>
