<svg width="3966" height="3966" viewBox="0 0 3966 3966" fill="none" xmlns="http://www.w3.org/2000/svg">
<circle cx="1983" cy="1983" r="1606" fill="#0E4541"/>
<path d="M2630.88 1299.92L2630.26 1299.78C2510.19 1272.45 2375.95 1258.78 2227.54 1258.78C2080.09 1258.78 1972.71 1266.59 1905.39 1282.2L1905.38 1282.2C1839.01 1296.84 1786.82 1315.87 1748.8 1339.27L1748.8 1339.27C1679.59 1382.16 1645.04 1438.66 1645.04 1508.77C1645.04 1577 1666.96 1633.51 1710.8 1678.33C1749.8 1716.35 1821.03 1760.27 1924.54 1810.07L2309.79 1993.18H2309.79C2437.73 2053.73 2527.15 2110.89 2578 2164.67L2580.42 2167.19C2630.98 2220.11 2668.29 2273.51 2692.36 2327.41H2692.35C2716.8 2381.2 2729.02 2446.22 2729.02 2522.44C2729.02 2597.71 2712.4 2669.07 2679.16 2736.53L2679.16 2736.53C2645.92 2803.02 2594.1 2861.18 2523.73 2911.03L2523.73 2911.03C2454.33 2959.9 2365.4 2998.5 2256.97 3026.83L2256.96 3026.83C2148.51 3054.19 2015.65 3067.86 1858.4 3067.86C1702.13 3067.86 1544.4 3058.58 1385.2 3040.02L1384.76 3039.97V2754.72L1385.37 2754.86C1527.91 2787.08 1671.43 2803.19 1815.92 2803.19C1960.44 2803.19 2068.79 2795.38 2141 2779.76L2144.38 2778.98C2215.05 2762.5 2271.98 2741.29 2315.18 2715.37L2317.07 2714.22C2396.75 2665.62 2436.52 2602.67 2436.52 2525.37C2436.52 2464.9 2420.91 2418.17 2389.78 2385.08V2385.08C2340.03 2333.39 2268.31 2286.06 2174.6 2243.11V2243.11L1799.6 2071.72L1799.6 2071.72C1670.68 2011.16 1579.31 1954.99 1525.54 1903.17L1525.54 1903.17C1410.21 1791.76 1352.53 1662.72 1352.53 1516.09C1352.53 1365.52 1418.05 1243.8 1549.03 1150.94L1552.41 1148.56C1695.9 1048.5 1898.99 998.5 2161.62 998.5C2332.54 998.5 2488.8 1005.34 2630.42 1019.01L2630.88 1019.05V1299.92Z" fill="white" stroke="white"/>
<path d="M2834.93 1016.74L2768.15 1063.66" stroke="white" stroke-width="50" stroke-linecap="round"/>
<path d="M2872.93 1157.46L2791.33 1158.45" stroke="white" stroke-width="50" stroke-linecap="round"/>
<path d="M2837.79 1289.33L2773.4 1239.19" stroke="white" stroke-width="50" stroke-linecap="round"/>
<path d="M2659.23 1028.21H2710.91C2715.05 1028.21 2718.41 1031.57 2718.41 1035.71V1274.29C2718.41 1278.43 2715.05 1281.79 2710.91 1281.79H2659.23C2655.09 1281.79 2651.73 1278.43 2651.73 1274.29V1035.71C2651.73 1031.57 2655.09 1028.21 2659.23 1028.21Z" fill="white" stroke="white" stroke-width="25"/>
<path d="M2303.19 1299.97L2302.54 1299.77C2234.25 1278.31 2128.36 1267.57 1984.82 1267.57C1842.28 1267.57 1721.24 1285.14 1621.7 1320.27C1522.15 1355.41 1439.7 1405.66 1374.33 1471.03L1374.33 1471.04C1243.59 1598.85 1178.19 1779.37 1178.19 2012.67C1178.19 2247.93 1242.61 2434.32 1371.41 2571.9L1373.05 2573.63C1512.51 2720.79 1712.5 2794.4 1973.1 2794.4C2126.4 2794.4 2251.84 2782.68 2349.45 2759.26L2350.06 2759.11V3041.41L2349.65 3041.48C2252.93 3059.07 2122.52 3067.86 1958.45 3067.86C1795.32 3067.86 1647.8 3045.39 1515.91 3000.45L1515.9 3000.45C1384.98 2955.51 1272.13 2889.07 1177.35 2801.12C974.099 2612.53 872.5 2349.69 872.5 2012.67C872.5 1792.86 924.766 1602.34 1029.32 1441.11H1029.32C1171.01 1223.21 1388.42 1084.47 1681.49 1024.88H1681.5C1771.38 1007.29 1878.35 998.5 2002.39 998.5C2127.41 998.5 2227.54 1005.34 2302.78 1019.02L2303.19 1019.09V1299.97Z" fill="white" stroke="white"/>
</svg>
