<svg width="19317" height="4125" viewBox="0 0 19317 4125" fill="none" xmlns="http://www.w3.org/2000/svg">
<circle cx="1921" cy="2075" r="1606" fill="#D9D9D9"/>
<path d="M2461.44 3002.62C2392.11 3051.45 2303.24 3090.02 2194.84 3118.34C2086.44 3145.69 1953.63 3159.36 1796.4 3159.36C1640.15 3159.36 1482.44 3150.08 1323.26 3131.53V2847.35C1465.84 2879.57 1609.39 2895.69 1753.92 2895.69C1898.45 2895.69 2006.85 2887.88 2079.12 2872.25C2151.38 2855.65 2209.49 2834.16 2253.43 2807.8C2334.49 2758.97 2375.02 2695.49 2375.02 2617.37C2375.02 2556.82 2359.39 2509.95 2328.14 2476.74C2278.34 2424.98 2206.56 2377.62 2112.81 2334.65L1737.81 2163.27C1608.9 2102.72 1517.59 2046.57 1463.88 1994.81C1348.65 1883.48 1291.03 1754.57 1291.03 1608.09C1291.03 1457.7 1356.46 1336.12 1487.32 1243.34C1630.88 1141.78 1834.98 1091 2099.62 1091C2270.52 1091 2426.77 1097.84 2568.38 1111.51V1391.29C2448.26 1363.95 2313.98 1350.28 2165.54 1350.28C2018.08 1350.28 1910.66 1358.09 1843.28 1373.71C1776.87 1388.36 1724.62 1407.41 1686.54 1430.84C1617.2 1473.81 1582.54 1530.45 1582.54 1600.77C1582.54 1669.12 1604.51 1725.77 1648.45 1770.69C1687.52 1808.77 1758.8 1852.72 1862.32 1902.52L2247.57 2085.63C2375.5 2146.18 2464.86 2203.3 2515.64 2257.02C2567.4 2310.73 2605.48 2364.93 2629.9 2419.61C2654.31 2473.32 2666.52 2538.27 2666.52 2614.44C2666.52 2689.63 2649.92 2760.92 2616.71 2828.3C2583.51 2894.71 2531.75 2952.82 2461.44 3002.62Z" fill="#777777"/>
<path d="M2772.93 1108.75L2706.15 1155.66" stroke="#777777" stroke-width="50" stroke-linecap="round"/>
<path d="M2810.93 1249.46L2729.33 1250.45" stroke="#777777" stroke-width="50" stroke-linecap="round"/>
<path d="M2775.79 1381.33L2711.4 1331.19" stroke="#777777" stroke-width="50" stroke-linecap="round"/>
<path d="M2597.23 1120.21H2648.91C2653.05 1120.21 2656.41 1123.57 2656.41 1127.71V1366.29C2656.41 1370.43 2653.05 1373.79 2648.91 1373.79H2597.23C2593.09 1373.79 2589.73 1370.43 2589.73 1366.29V1127.71C2589.73 1123.57 2593.09 1120.21 2597.23 1120.21Z" stroke="#777777" stroke-width="25"/>
<path d="M2287.56 3132.99C2190.88 3150.57 2060.51 3159.36 1896.45 3159.36C1733.36 3159.36 1585.9 3136.9 1454.07 3091.98C1323.21 3047.05 1210.41 2980.65 1115.69 2892.76C912.562 2704.28 811 2441.59 811 2104.67C811 1884.95 863.246 1694.52 967.738 1533.38C1109.34 1315.61 1326.62 1176.94 1619.59 1117.37C1709.44 1099.79 1816.37 1091 1940.39 1091C2065.39 1091 2165.49 1097.84 2240.69 1111.51V1391.29C2172.33 1369.81 2066.37 1359.07 1922.82 1359.07C1780.24 1359.07 1659.14 1376.64 1559.54 1411.8C1459.93 1446.96 1377.41 1497.25 1311.98 1562.68C1181.12 1690.61 1115.69 1871.27 1115.69 2104.67C1115.69 2340.02 1180.14 2526.55 1309.05 2664.24C1448.7 2812.68 1649.38 2886.9 1911.1 2886.9C2064.42 2886.9 2189.91 2875.18 2287.56 2851.74V3132.99Z" fill="#777777"/>
<path d="M4193.07 1356.99C4200.39 1203.18 4282.18 1123.02 4438.43 1116.51H5169.63C5328.32 1123.02 5409.7 1205.22 5413.77 1363.09V1767.15H5047.56V1483.94H4559.28V2500.79H5047.56V2190.73H5413.77V2624.08C5409.7 2777.89 5327.92 2858.86 5168.41 2867H4437.21C4281.77 2862.12 4200.39 2780.74 4193.07 2622.86V1356.99ZM5657.91 772.273H6024.12V2867H5657.91V772.273ZM6268.27 1780.57C6274.78 1618.63 6356.16 1533.18 6512.41 1524.23H6998.25C7157.75 1533.99 7239.95 1618.63 7244.83 1778.13V2133.36C7237.5 2285.54 7156.12 2367.33 7000.69 2378.72H6634.48V2500.79H7193.56V2867H6514.85C6361.85 2857.23 6279.66 2777.89 6268.27 2628.96V1780.57ZM6634.48 2012.51H6878.62V1890.44H6634.48V2012.51ZM7547.56 1524.23H8220.17C8378.05 1533.18 8459.83 1614.15 8465.53 1767.15V2867H7734.33C7577.27 2859.68 7495.48 2778.3 7488.97 2622.86V2259.09C7495.48 2103.65 7577.67 2021.46 7735.55 2012.51H8099.32V1890.44H7547.56V1524.23ZM7855.18 2378.72V2500.79H8099.32V2378.72H7855.18ZM9686.23 1769.59V2867H9320.02V1890.44H9075.88V2867H8709.67L8710.89 1763.48C8714.15 1612.12 8795.12 1532.36 8953.81 1524.23H9442.09C9600.79 1532.36 9682.17 1614.15 9686.23 1769.59ZM9930.38 1524.23H10296.6V2867H9930.38V1524.23ZM9930.38 1035.95H10296.6V1402.16H9930.38V1035.95ZM11517.3 1769.59V2867H11151.1V1890.44H10906.9V2867H10540.7L10541.9 1763.48C10545.2 1612.12 10626.2 1532.36 10784.9 1524.23H11273.1C11431.8 1532.36 11513.2 1614.15 11517.3 1769.59ZM11761.4 1774.47C11769.6 1617.41 11852.2 1533.99 12009.2 1524.23H12738V3122.13C12725.8 3282.45 12642 3367.49 12486.5 3377.25H11761.4V3011.04H12371.8V2867H12014.1C11853.8 2858.86 11769.6 2779.11 11761.4 2627.74V1774.47ZM12127.6 2500.79H12371.8V1890.44H12127.6V2500.79ZM14700.9 1116.51V1482.72H13968.5V1819.64H14578.8C14734.2 1828.59 14815.6 1909.97 14823 2063.78V2619.2C14815.6 2775.45 14733.4 2858.05 14576.4 2867H13602.2V2500.79H14456.7V2185.85H13846.4C13690.1 2176.08 13608.8 2095.11 13602.2 1942.93V1346C13608.8 1201.96 13690.1 1125.46 13846.4 1116.51H14700.9ZM15067.1 1780.57C15073.6 1618.63 15155 1533.18 15311.2 1524.23H15797.1C15956.6 1533.99 16038.8 1618.63 16043.7 1778.13V2133.36C16036.3 2285.54 15955 2367.33 15799.5 2378.72H15433.3V2500.79H15992.4V2867H15313.7C15160.7 2857.23 15078.5 2777.89 15067.1 2628.96V1780.57ZM15433.3 2012.51H15677.4V1890.44H15433.3V2012.51ZM16834.7 2500.79V1524.23H17200.9V2500.79H17386.4V1524.23H17752.6V2625.3C17746.9 2779.92 17666.4 2860.49 17510.9 2867H17202.1C17111 2863.74 17050.3 2823.46 17020.2 2746.15C16987.7 2823.46 16925.8 2863.74 16834.7 2867H16531.9C16375.7 2861.3 16294.3 2780.33 16287.8 2624.08V1524.23H16654V2500.79H16834.7ZM18055.4 1524.23H18728C18885.9 1533.18 18967.6 1614.15 18973.3 1767.15V2867H18242.1C18085.1 2859.68 18003.3 2778.3 17996.8 2622.86V2259.09C18003.3 2103.65 18085.5 2021.46 18243.4 2012.51H18607.1V1890.44H18055.4V1524.23ZM18363 2378.72V2500.79H18607.1V2378.72H18363Z" fill="#777777"/>
</svg>
