<svg width="19317" height="4125" viewBox="0 0 19317 4125" fill="none" xmlns="http://www.w3.org/2000/svg">
<circle cx="1921" cy="2075" r="1606" fill="#0E4541"/>
<path d="M2568.88 1391.92L2568.26 1391.78C2448.19 1364.45 2313.95 1350.78 2165.54 1350.78C2018.09 1350.78 1910.71 1358.59 1843.39 1374.2L1843.38 1374.2C1777.01 1388.84 1724.82 1407.87 1686.8 1431.27L1686.8 1431.27C1617.59 1474.16 1583.04 1530.66 1583.04 1600.77C1583.04 1669 1604.96 1725.51 1648.8 1770.33C1687.8 1808.35 1759.03 1852.27 1862.54 1902.07L2247.79 2085.18H2247.79C2375.73 2145.73 2465.15 2202.89 2516 2256.67L2518.42 2259.19C2568.98 2312.11 2606.29 2365.51 2630.36 2419.41H2630.35C2654.8 2473.2 2667.02 2538.22 2667.02 2614.44C2667.02 2689.71 2650.4 2761.07 2617.16 2828.53L2617.16 2828.53C2583.92 2895.02 2532.1 2953.18 2461.73 3003.03L2461.73 3003.03C2392.33 3051.9 2303.4 3090.5 2194.97 3118.83L2194.96 3118.83C2086.51 3146.19 1953.65 3159.86 1796.4 3159.86C1640.13 3159.86 1482.4 3150.58 1323.2 3132.02L1322.76 3131.97V2846.72L1323.37 2846.86C1465.91 2879.08 1609.43 2895.19 1753.92 2895.19C1898.44 2895.19 2006.79 2887.38 2079 2871.76L2082.38 2870.98C2153.05 2854.5 2209.98 2833.29 2253.18 2807.37L2255.07 2806.22C2334.75 2757.62 2374.52 2694.67 2374.52 2617.37C2374.52 2556.9 2358.91 2510.17 2327.78 2477.08V2477.08C2278.03 2425.39 2206.31 2378.06 2112.6 2335.11V2335.11L1737.6 2163.72L1737.6 2163.72C1608.68 2103.16 1517.31 2046.99 1463.54 1995.17L1463.54 1995.17C1348.21 1883.76 1290.53 1754.72 1290.53 1608.09C1290.53 1457.52 1356.05 1335.8 1487.03 1242.94L1490.41 1240.56C1633.9 1140.5 1836.99 1090.5 2099.62 1090.5C2270.54 1090.5 2426.8 1097.34 2568.42 1111.01L2568.88 1111.05V1391.92Z" fill="white" stroke="white"/>
<path d="M2772.93 1108.75L2706.15 1155.66" stroke="white" stroke-width="50" stroke-linecap="round"/>
<path d="M2810.93 1249.46L2729.33 1250.45" stroke="white" stroke-width="50" stroke-linecap="round"/>
<path d="M2775.79 1381.33L2711.4 1331.19" stroke="white" stroke-width="50" stroke-linecap="round"/>
<path d="M2597.23 1120.21H2648.91C2653.05 1120.21 2656.41 1123.57 2656.41 1127.71V1366.29C2656.41 1370.43 2653.05 1373.79 2648.91 1373.79H2597.23C2593.09 1373.79 2589.73 1370.43 2589.73 1366.29V1127.71C2589.73 1123.57 2593.09 1120.21 2597.23 1120.21Z" fill="white" stroke="white" stroke-width="25"/>
<path d="M2241.19 1391.97L2240.54 1391.77C2172.25 1370.31 2066.36 1359.57 1922.82 1359.57C1780.28 1359.57 1659.24 1377.14 1559.7 1412.27C1460.15 1447.41 1377.7 1497.66 1312.33 1563.03L1312.33 1563.04C1181.59 1690.85 1116.19 1871.37 1116.19 2104.67C1116.19 2339.93 1180.61 2526.32 1309.41 2663.9L1311.05 2665.63C1450.51 2812.79 1650.5 2886.4 1911.1 2886.4C2064.4 2886.4 2189.84 2874.68 2287.45 2851.26L2288.06 2851.11V3133.41L2287.65 3133.48C2190.93 3151.07 2060.52 3159.86 1896.45 3159.86C1733.32 3159.86 1585.8 3137.39 1453.91 3092.45L1453.9 3092.45C1322.98 3047.51 1210.13 2981.07 1115.35 2893.12C912.099 2704.53 810.5 2441.69 810.5 2104.67C810.5 1884.86 862.766 1694.34 967.318 1533.11H967.319C1109.01 1315.21 1326.42 1176.47 1619.49 1116.88H1619.5C1709.38 1099.29 1816.35 1090.5 1940.39 1090.5C2065.41 1090.5 2165.54 1097.34 2240.78 1111.02L2241.19 1111.09V1391.97Z" fill="white" stroke="white"/>
<path d="M4193.07 1356.99C4200.39 1203.18 4282.18 1123.02 4438.43 1116.51H5169.63C5328.32 1123.02 5409.7 1205.22 5413.77 1363.09V1767.15H5047.56V1483.94H4559.28V2500.79H5047.56V2190.73H5413.77V2624.08C5409.7 2777.89 5327.92 2858.86 5168.41 2867H4437.21C4281.77 2862.12 4200.39 2780.74 4193.07 2622.86V1356.99ZM5657.91 772.273H6024.12V2867H5657.91V772.273ZM6268.27 1780.57C6274.78 1618.63 6356.16 1533.18 6512.41 1524.23H6998.25C7157.75 1533.99 7239.95 1618.63 7244.83 1778.13V2133.36C7237.5 2285.54 7156.12 2367.33 7000.69 2378.72H6634.48V2500.79H7193.56V2867H6514.85C6361.85 2857.23 6279.66 2777.89 6268.27 2628.96V1780.57ZM6634.48 2012.51H6878.62V1890.44H6634.48V2012.51ZM7547.56 1524.23H8220.17C8378.05 1533.18 8459.83 1614.15 8465.53 1767.15V2867H7734.33C7577.27 2859.68 7495.48 2778.3 7488.97 2622.86V2259.09C7495.48 2103.65 7577.67 2021.46 7735.55 2012.51H8099.32V1890.44H7547.56V1524.23ZM7855.18 2378.72V2500.79H8099.32V2378.72H7855.18ZM9686.23 1769.59V2867H9320.02V1890.44H9075.88V2867H8709.67L8710.89 1763.48C8714.15 1612.12 8795.12 1532.36 8953.81 1524.23H9442.09C9600.79 1532.36 9682.17 1614.15 9686.23 1769.59ZM9930.38 1524.23H10296.6V2867H9930.38V1524.23ZM9930.38 1035.95H10296.6V1402.16H9930.38V1035.95ZM11517.3 1769.59V2867H11151.1V1890.44H10906.9V2867H10540.7L10541.9 1763.48C10545.2 1612.12 10626.2 1532.36 10784.9 1524.23H11273.1C11431.8 1532.36 11513.2 1614.15 11517.3 1769.59ZM11761.4 1774.47C11769.6 1617.41 11852.2 1533.99 12009.2 1524.23H12738V3122.13C12725.8 3282.45 12642 3367.49 12486.5 3377.25H11761.4V3011.04H12371.8V2867H12014.1C11853.8 2858.86 11769.6 2779.11 11761.4 2627.74V1774.47ZM12127.6 2500.79H12371.8V1890.44H12127.6V2500.79ZM14700.9 1116.51V1482.72H13968.5V1819.64H14578.8C14734.2 1828.59 14815.6 1909.97 14823 2063.78V2619.2C14815.6 2775.45 14733.4 2858.05 14576.4 2867H13602.2V2500.79H14456.7V2185.85H13846.4C13690.1 2176.08 13608.8 2095.11 13602.2 1942.93V1346C13608.8 1201.96 13690.1 1125.46 13846.4 1116.51H14700.9ZM15067.1 1780.57C15073.6 1618.63 15155 1533.18 15311.2 1524.23H15797.1C15956.6 1533.99 16038.8 1618.63 16043.7 1778.13V2133.36C16036.3 2285.54 15955 2367.33 15799.5 2378.72H15433.3V2500.79H15992.4V2867H15313.7C15160.7 2857.23 15078.5 2777.89 15067.1 2628.96V1780.57ZM15433.3 2012.51H15677.4V1890.44H15433.3V2012.51ZM16834.7 2500.79V1524.23H17200.9V2500.79H17386.4V1524.23H17752.6V2625.3C17746.9 2779.92 17666.4 2860.49 17510.9 2867H17202.1C17111 2863.74 17050.3 2823.46 17020.2 2746.15C16987.7 2823.46 16925.8 2863.74 16834.7 2867H16531.9C16375.7 2861.3 16294.3 2780.33 16287.8 2624.08V1524.23H16654V2500.79H16834.7ZM18055.4 1524.23H18728C18885.9 1533.18 18967.6 1614.15 18973.3 1767.15V2867H18242.1C18085.1 2859.68 18003.3 2778.3 17996.8 2622.86V2259.09C18003.3 2103.65 18085.5 2021.46 18243.4 2012.51H18607.1V1890.44H18055.4V1524.23ZM18363 2378.72V2500.79H18607.1V2378.72H18363Z" fill="#0E4541"/>
</svg>
