<svg width="3212" height="3212" viewBox="0 0 3212 3212" fill="none" xmlns="http://www.w3.org/2000/svg">
<circle cx="1606" cy="1606" r="1606" fill="#0E4541"/>
<path d="M2253.88 922.92L2253.26 922.78C2133.19 895.446 1998.95 881.777 1850.54 881.777C1703.09 881.777 1595.71 889.591 1528.39 905.202L1528.38 905.203C1462.01 919.845 1409.82 938.871 1371.8 962.268L1371.8 962.269C1302.59 1005.16 1268.04 1061.66 1268.04 1131.77C1268.04 1200 1289.96 1256.51 1333.8 1301.33C1372.8 1339.35 1444.03 1383.27 1547.54 1433.07L1932.79 1616.18H1932.79C2060.73 1676.73 2150.15 1733.89 2201 1787.67L2203.42 1790.19C2253.98 1843.11 2291.29 1896.51 2315.36 1950.41H2315.35C2339.8 2004.2 2352.02 2069.22 2352.02 2145.44C2352.02 2220.71 2335.4 2292.07 2302.16 2359.53L2302.16 2359.53C2268.92 2426.02 2217.1 2484.18 2146.73 2534.03L2146.73 2534.03C2077.33 2582.9 1988.4 2621.5 1879.97 2649.83L1879.96 2649.83C1771.51 2677.19 1638.65 2690.86 1481.4 2690.86C1325.13 2690.86 1167.4 2681.58 1008.2 2663.02L1007.76 2662.97V2377.72L1008.37 2377.86C1150.91 2410.08 1294.43 2426.19 1438.92 2426.19C1583.44 2426.19 1691.79 2418.38 1764 2402.76L1767.38 2401.98C1838.05 2385.5 1894.98 2364.29 1938.18 2338.37L1940.07 2337.22C2019.75 2288.62 2059.52 2225.67 2059.52 2148.37C2059.52 2087.9 2043.91 2041.17 2012.78 2008.08V2008.08C1963.03 1956.39 1891.31 1909.06 1797.6 1866.11V1866.11L1422.6 1694.72L1422.6 1694.72C1293.68 1634.16 1202.31 1577.99 1148.54 1526.17L1148.54 1526.17C1033.21 1414.76 975.531 1285.72 975.531 1139.09C975.531 988.525 1041.05 866.795 1172.03 773.936L1175.41 771.562C1318.9 671.5 1521.99 621.5 1784.62 621.5C1955.54 621.5 2111.8 628.336 2253.42 642.01L2253.88 642.054V922.92Z" fill="white" stroke="white"/>
<path d="M2457.93 639.745L2391.15 686.657" stroke="white" stroke-width="50" stroke-linecap="round"/>
<path d="M2495.93 780.455L2414.33 781.454" stroke="white" stroke-width="50" stroke-linecap="round"/>
<path d="M2460.79 912.33L2396.4 862.192" stroke="white" stroke-width="50" stroke-linecap="round"/>
<path d="M2282.23 651.211H2333.91C2338.05 651.211 2341.41 654.569 2341.41 658.711V897.292C2341.41 901.434 2338.05 904.792 2333.91 904.792H2282.23C2278.09 904.792 2274.73 901.434 2274.73 897.292V658.711C2274.73 654.569 2278.09 651.211 2282.23 651.211Z" fill="white" stroke="white" stroke-width="25"/>
<path d="M1926.19 922.975L1925.54 922.77C1857.25 901.309 1751.36 890.566 1607.82 890.566C1465.28 890.566 1344.24 908.14 1244.7 943.272C1145.15 978.407 1062.7 1028.66 997.33 1094.03L997.326 1094.04C866.588 1221.85 801.188 1402.37 801.188 1635.67C801.188 1870.93 865.612 2057.32 994.411 2194.9L996.049 2196.63C1135.51 2343.79 1335.5 2417.4 1596.1 2417.4C1749.4 2417.4 1874.84 2405.68 1972.45 2382.26L1973.06 2382.11V2664.41L1972.65 2664.48C1875.93 2682.07 1745.52 2690.86 1581.45 2690.86C1418.32 2690.86 1270.8 2668.39 1138.91 2623.45L1138.9 2623.45C1007.98 2578.51 895.129 2512.07 800.348 2424.12C597.099 2235.53 495.5 1972.69 495.5 1635.67C495.5 1415.86 547.766 1225.34 652.318 1064.11H652.319C794.005 846.207 1011.42 707.47 1304.49 647.877H1304.5C1394.38 630.291 1501.35 621.5 1625.39 621.5C1750.41 621.5 1850.54 628.336 1925.78 642.016L1926.19 642.091V922.975Z" fill="white" stroke="white"/>
</svg>
