<svg xmlns="http://www.w3.org/2000/svg" version="1.1" xmlns:xlink="http://www.w3.org/1999/xlink" width="1000" height="1000"><g clip-path="url(#SvgjsClipPath1029)"><rect width="1000" height="1000" fill="#ffffff"></rect><g transform="matrix(0.28019925280199254,0,0,0.28019925280199254,50,50)"><svg xmlns="http://www.w3.org/2000/svg" width="3212" height="3212" viewBox="0 0 3212 3212" fill="none"><circle cx="1606" cy="1606" r="1606" fill="#D9D9D9"></circle><path d="M2146.44 2533.62C2077.11 2582.45 1988.24 2621.02 1879.84 2649.34C1771.44 2676.69 1638.63 2690.36 1481.4 2690.36C1325.15 2690.36 1167.44 2681.08 1008.26 2662.53V2378.35C1150.84 2410.57 1294.39 2426.69 1438.92 2426.69C1583.45 2426.69 1691.85 2418.88 1764.12 2403.25C1836.38 2386.65 1894.49 2365.16 1938.43 2338.8C2019.49 2289.97 2060.02 2226.49 2060.02 2148.37C2060.02 2087.82 2044.39 2040.95 2013.14 2007.74C1963.34 1955.98 1891.56 1908.62 1797.81 1865.65L1422.81 1694.27C1293.9 1633.72 1202.59 1577.57 1148.88 1525.81C1033.65 1414.48 976.031 1285.57 976.031 1139.09C976.031 988.699 1041.46 867.117 1172.32 774.344C1315.88 672.781 1519.98 622 1784.62 622C1955.52 622 2111.77 628.836 2253.38 642.508V922.293C2133.26 894.949 1998.98 881.277 1850.54 881.277C1703.08 881.277 1595.66 889.09 1528.28 904.715C1461.87 919.363 1409.62 938.406 1371.54 961.844C1302.2 1004.81 1267.54 1061.45 1267.54 1131.77C1267.54 1200.12 1289.51 1256.77 1333.45 1301.69C1372.52 1339.77 1443.8 1383.72 1547.32 1433.52L1932.57 1616.63C2060.5 1677.18 2149.86 1734.3 2200.64 1788.02C2252.4 1841.73 2290.48 1895.93 2314.9 1950.61C2339.31 2004.32 2351.52 2069.27 2351.52 2145.44C2351.52 2220.63 2334.92 2291.92 2301.71 2359.3C2268.51 2425.71 2216.75 2483.82 2146.44 2533.62Z" fill="#777777"></path><path d="M2457.93 639.745L2391.15 686.657" stroke="#777777" stroke-width="50" stroke-linecap="round"></path><path d="M2495.93 780.455L2414.33 781.454" stroke="#777777" stroke-width="50" stroke-linecap="round"></path><path d="M2460.79 912.33L2396.4 862.192" stroke="#777777" stroke-width="50" stroke-linecap="round"></path><path d="M2282.23 651.211H2333.91C2338.05 651.211 2341.41 654.569 2341.41 658.711V897.292C2341.41 901.434 2338.05 904.792 2333.91 904.792H2282.23C2278.09 904.792 2274.73 901.434 2274.73 897.292V658.711C2274.73 654.569 2278.09 651.211 2282.23 651.211Z" stroke="#777777" stroke-width="25"></path><path d="M1972.56 2663.99C1875.88 2681.57 1745.51 2690.36 1581.45 2690.36C1418.36 2690.36 1270.9 2667.9 1139.07 2622.98C1008.21 2578.05 895.414 2511.65 800.688 2423.76C597.562 2235.28 496 1972.59 496 1635.67C496 1415.95 548.246 1225.52 652.738 1064.38C794.34 846.609 1011.62 707.938 1304.59 648.367C1394.44 630.789 1501.37 622 1625.39 622C1750.39 622 1850.49 628.836 1925.69 642.508V922.293C1857.33 900.809 1751.37 890.066 1607.82 890.066C1465.24 890.066 1344.14 907.645 1244.54 942.801C1144.93 977.957 1062.41 1028.25 996.977 1093.68C866.117 1221.61 800.688 1402.27 800.688 1635.67C800.688 1871.02 865.141 2057.55 994.047 2195.24C1133.7 2343.68 1334.38 2417.9 1596.1 2417.9C1749.42 2417.9 1874.91 2406.18 1972.56 2382.74V2663.99Z" fill="#777777"></path></svg></g></g><defs><clipPath id="SvgjsClipPath1029"><rect width="1000" height="1000" x="0" y="0" rx="350" ry="350"></rect></clipPath></defs></svg>